<svg id="font-minus" xmlns="http://www.w3.org/2000/svg" width="18" height="18" viewBox="0 0 18 18">
  <path id="Path_30" data-name="Path 30" d="M0,0H18V18H0Z" fill="none"/>
  <path id="Path_31" data-name="Path 31" d="M6,10H3a1,1,0,0,0,0,2H7a1,1,0,0,0,0-2Z" transform="translate(9 -5.5)" fill="rgba(0,0,0,0.6)"/>
  <path id="Path_17372" data-name="Path 17372" d="M15,5a1.137,1.137,0,0,0-1.05.69l-3.88,8.97a.964.964,0,1,0,1.78.74l.66-1.6h5l.66,1.6a.959.959,0,0,0,1.77-.74L16.06,5.69A1.162,1.162,0,0,0,15,5Zm-1.87,7L15,6.98,16.87,12Z" transform="translate(-7.714 -1.154)" fill="rgba(0,0,0,0.6)"/>
</svg>
