<svg height="16" id="reset" viewBox="0 0 16 16" width="16" xmlns="http://www.w3.org/2000/svg"><style type="text/css">
<!--/*-->/* &gt;&lt;!--*/

&lt;!--/*--&gt;&lt;![CDATA[/* &gt;&lt;!--*/
tspan {
            white-space: pre
          }

          .shp0 {
            fill: none
          }

          .shp1 {
            fill: #6e6e6e
          }
	
/*--&gt;&lt;!]]&gt;*/

/*--&gt;&lt;!*/
</style><path class="shp0" d="M0 0L16 0L16 16L0 16L0 0Z" id="Path_300"/><path class="shp1" d="M7.62 2.89C7.72 2.93 7.82 2.97 7.92 3.03C8.01 3.1 8.1 3.17 8.17 3.25C8.24 3.34 8.3 3.43 8.35 3.54L12.23 12.51C12.32 12.74 12.32 13 12.23 13.24C12.13 13.48 11.95 13.66 11.71 13.76C11.48 13.86 11.21 13.86 10.98 13.76C10.74 13.67 10.55 13.48 10.46 13.25L9.8 11.65L4.8 11.65L4.14 13.25C4.04 13.49 3.85 13.68 3.62 13.78C3.38 13.88 3.11 13.88 2.87 13.78C2.63 13.68 2.44 13.49 2.35 13.25C2.25 13.01 2.25 12.74 2.36 12.51L6.24 3.54C6.28 3.43 6.34 3.34 6.41 3.25C6.48 3.17 6.56 3.09 6.66 3.03C6.75 2.97 6.85 2.92 6.96 2.89C7.06 2.86 7.17 2.85 7.29 2.85C7.4 2.85 7.51 2.86 7.62 2.89ZM9.16 9.85L7.29 4.83L5.42 9.85L9.16 9.85Z" fill-rule="evenodd" id="Path_331"/></svg>