<svg height="18" id="zoom-in" viewBox="0 0 18 18" width="18" xmlns="http://www.w3.org/2000/svg"><defs><style type="text/css">
<!--/*-->/* &gt;&lt;!--*/

&lt;!--/*--&gt;&lt;![CDATA[/* &gt;&lt;!--*/
.prefix__cls-2 {
              fill: rgba(0, 0, 0, .6)
            }
	
/*--&gt;&lt;!]]&gt;*/

/*--&gt;&lt;!*/
</style></defs><path d="M0 0h18v18H0z" data-name="Path 30" id="prefix__Path_30" style="fill:none"/><path class="prefix__cls-2" d="M6 10V9a1 1 0 0 0-2 0v1H3a1 1 0 0 0 0 2h1v1a1 1 0 0 0 2 0v-1h1a1 1 0 0 0 0-2z" data-name="Path 31" id="prefix__Path_31" transform="translate(9 -5.5)"/><path class="prefix__cls-2" d="M15 5a1.137 1.137 0 0 0-1.05.69l-3.88 8.97a.964.964 0 1 0 1.78.74l.66-1.6h5l.66 1.6a.959.959 0 0 0 1.77-.74l-3.88-8.97A1.162 1.162 0 0 0 15 5zm-1.87 7L15 6.98 16.87 12z" data-name="Path 17372" id="prefix__Path_17372" transform="translate(-7.714 -1.154)"/></svg>